<svg width="72" height="60" viewBox="0 0 72 60" fill="none" xmlns="http://www.w3.org/2000/svg">
<path fill-rule="evenodd" clip-rule="evenodd" d="M7.2 12C5.87453 12 4.8 12.8954 4.8 14C4.8 15.1046 5.87453 16 7.2 16H64.8C66.1253 16 67.2 15.1046 67.2 14C67.2 12.8954 66.1253 12 64.8 12H7.2ZM4.8 30C4.8 28.8954 5.87453 28 7.2 28H64.8C66.1253 28 67.2 28.8954 67.2 30C67.2 31.1046 66.1253 32 64.8 32H7.2C5.87453 32 4.8 31.1046 4.8 30ZM4.8 46C4.8 44.8956 5.87453 44 7.2 44H64.8C66.1253 44 67.2 44.8956 67.2 46C67.2 47.1044 66.1253 48 64.8 48H7.2C5.87453 48 4.8 47.1044 4.8 46Z" fill="white"/>
</svg>
